Land_normalized_precision_landing05_filtered_grf
version=1
nRows=25
nColumns=37
inDegrees=yes
endheader
time		1_ground_force_vx		1_ground_force_vy		1_ground_force_vz		1_ground_force_px		1_ground_force_py		1_ground_force_pz		1_ground_torque_x		1_ground_torque_y		1_ground_torque_z		2_ground_force_vx		2_ground_force_vy		2_ground_force_vz		2_ground_force_px		2_ground_force_py		2_ground_force_pz		2_ground_torque_x		2_ground_torque_y		2_ground_torque_z		3_ground_force_vx		3_ground_force_vy		3_ground_force_vz		3_ground_force_px		3_ground_force_py		3_ground_force_pz		3_ground_torque_x		3_ground_torque_y		3_ground_torque_z		4_ground_force_vx		4_ground_force_vy		4_ground_force_vz		4_ground_force_px		4_ground_force_py		4_ground_force_pz		4_ground_torque_x		4_ground_torque_y		4_ground_torque_z		
1.204500		4.172152		-40.848234		-21.234251		0.099825		0.000000		0.246181		0.051820		-0.507357		-0.263741		0.734934		18.828087		9.592846		-0.193094		0.000000		0.232744		0.037422		0.958698		0.488453		11.436568		-1.447918		-4.973107		0.381178		1.275802		1.884892		-0.013169		0.001667		0.005727		-6.001683		-0.760453		-0.476111		-0.351471		1.268484		1.872643		0.013675		0.001733		0.001085		
1.207152		6.277728		-57.074943		-41.540877		0.094210		0.000000		0.200091		0.027342		-0.248822		-0.180436		-1.373236		8.730950		7.832089		-0.215482		0.000000		0.199823		-0.051083		0.338724		0.299517		11.269947		-1.505143		-5.020200		0.381149		1.275795		1.884944		-0.011971		0.001599		0.005332		-5.983672		-0.752472		-0.517700		-0.351502		1.268510		1.872694		0.014826		0.001864		0.001283		
1.209803		6.967745		-58.213007		-56.107332		0.091968		0.000000		0.148900		-0.030949		0.257971		0.250305		-4.074054		-10.107490		2.140380		-0.143904		0.000000		0.274459		0.012477		0.010457		-0.018545		11.036185		-1.536660		-5.085303		0.381124		1.275792		1.884996		-0.010361		0.001443		0.004774		-5.954362		-0.734460		-0.546462		-0.351535		1.268530		1.872750		0.015874		0.001958		0.001457		
1.212455		5.036970		-33.279919		-55.408783		0.097707		0.000000		0.001022		-0.112372		0.741115		1.238315		-6.639480		-35.103113		-7.393973		-0.165763		0.000000		0.257455		-0.276281		-1.461222		-0.307978		10.782654		-1.528014		-5.161194		0.381104		1.275792		1.885048		-0.008602		0.001219		0.004117		-5.921790		-0.709682		-0.559077		-0.351568		1.268541		1.872808		0.016776		0.002010		0.001584		
1.215106		-0.578483		27.240644		-29.453608		0.132775		0.000000		0.589018		0.008960		-0.653293		0.811906		-7.955047		-59.708796		-19.135764		-0.176451		0.000000		0.249620		-0.376367		-2.825262		-0.905541		10.551598		-1.477368		-5.235803		0.381093		1.275792		1.885097		-0.007008		0.000981		0.003477		-5.893134		-0.679667		-0.558586		-0.351597		1.268540		1.872868		0.017570		0.002026		0.001666		
1.217758		-10.347689		127.592232		28.698868		0.109499		0.000000		0.295749		-0.183747		2.266767		0.507812		-6.731861		-73.520477		-29.565132		-0.184934		0.000000		0.244024		-0.330849		-3.613553		-1.453182		10.373408		-1.398468		-5.295234		0.381093		1.275789		1.885145		-0.005856		0.000790		0.002989		-5.873346		-0.646646		-0.552948		-0.351618		1.268528		1.872926		0.018379		0.002023		0.001730		
1.220409		-23.871334		264.932819		119.894789		0.098164		0.000000		0.244109		-0.290980		3.229762		1.460675		-1.857306		-63.987296		-33.612708		-0.197917		0.000000		0.237193		-0.089596		-3.082684		-1.619112		10.265053		-1.315446		-5.326547		0.381099		1.275784		1.885189		-0.005347		0.000685		0.002774		-5.864837		-0.614277		-0.552194		-0.351631		1.268508		1.872978		0.019341		0.002026		0.001821		
1.223061		-39.809461		429.555659		236.793463		0.094024		0.000000		0.219110		-0.332515		3.587971		1.977556		7.212539		-18.989698		-25.435472		-0.240859		0.000000		0.223298		0.033844		-0.178927		-0.171574		10.234157		-1.254333		-5.320333		0.381109		1.275776		1.885230		-0.005632		0.000691		0.002928		-5.867614		-0.586588		-0.566048		-0.351636		1.268482		1.873020		0.020483		0.002048		0.001976		
1.225712		-56.078853		607.455780		363.165625		0.091584		0.000000		0.203688		-0.340090		3.683767		2.202100		20.001374		69.100436		0.038955		-0.130351		0.000000		0.246934		0.592969		2.075702		0.016743		10.281696		-1.234740		-5.276027		0.381120		1.275765		1.885268		-0.006802		0.000817		0.003490		-5.879511		-0.566743		-0.600520		-0.351636		1.268455		1.873051		0.021632		0.002085		0.002210		
1.228364		-70.528659		786.326727		477.054137		0.089726		0.000000		0.194467		-0.359155		4.004158		2.429285		34.793185		199.215618		45.017253		-0.156418		0.000000		0.241526		1.673658		9.585558		2.166971		10.401017		-1.264513		-5.206990		0.381125		1.275753		1.885303		-0.008768		0.001066		0.004389		-5.896852		-0.556416		-0.653980		-0.351632		1.268429		1.873071		0.022434		0.002117		0.002488		
1.231015		-81.734074		961.447591		556.583795		0.088214		0.000000		0.191240		-0.455627		5.359694		3.102663		48.879310		360.359308		107.517698		-0.164231		0.000000		0.236340		2.526033		18.623184		5.556504		10.576742		-1.339846		-5.139572		0.381122		1.275741		1.885335		-0.011158		0.001413		0.005422		-5.914763		-0.555441		-0.716278		-0.351630		1.268408		1.873082		0.022503		0.002113		0.002725		
1.233667		-89.381035		1137.320520		585.839457		0.087182		0.000000		0.194473		-0.691895		8.806485		4.534028		59.122745		532.332244		180.524459		-0.167352		0.000000		0.231213		3.164485		28.493800		9.663025		10.783261		-1.446871		-5.106265		0.381110		1.275730		1.885362		-0.013300		0.001785		0.006298		-5.927083		-0.561158		-0.771376		-0.351633		1.268392		1.873087		0.021606		0.002045		0.002812		
1.236318		-93.906136		1324.231585		561.294958		0.086983		0.000000		0.203853		-1.079726		15.231355		6.451319		63.165702		690.837554		252.671436		-0.168034		0.000000		0.225503		3.468416		37.935184		13.874816		10.986602		-1.564615		-5.131973		0.381088		1.275722		1.885386		-0.014461		0.002059		0.006755		-5.927575		-0.568360		-0.804548		-0.351644		1.268382		1.873090		0.019829		0.001901		0.002692		
1.238970		-95.370316		1531.733422		491.731622		0.087971		0.000000		0.217901		-1.542427		24.774885		7.951978		60.420876		815.778379		311.386192		-0.166606		0.000000		0.218929		3.388095		45.745097		17.461125		11.150803		-1.671357		-5.224295		0.381059		1.275715		1.885406		-0.014113		0.002116		0.006612		-5.911821		-0.571362		-0.808517		-0.351662		1.268376		1.873092		0.017545		0.001696		0.002400		
1.241621		-92.750317		1761.653010		395.708502		0.090014		0.000000		0.234044		-1.915401		36.389148		8.169783		52.570834		897.346439		346.249990		-0.162870		0.000000		0.211576		2.994857		51.121024		19.725539		11.242978		-1.749512		-5.369982		0.381029		1.275710		1.885420		-0.012097		0.001882		0.005778		-5.879129		-0.566538		-0.785124		-0.351685		1.268374		1.873096		0.015292		0.001474		0.002042		
1.244273		-84.369208		2002.161257		296.222983		0.092371		0.000000		0.249448		-2.038762		48.395307		7.156762		43.242206		939.654439		353.092862		-0.156666		0.000000		0.204134		2.480545		53.902393		20.254834		11.242148		-1.790454		-5.537249		0.381000		1.275704		1.885431		-0.008722		0.001389		0.004295		-5.834043		-0.554382		-0.744134		-0.351713		1.268375		1.873104		0.013568		0.001289		0.001731		
1.246924		-69.308895		2227.934210		213.859816		0.094266		0.000000		0.262020		-1.850158		59.481180		5.708701		36.542751		957.295623		335.002476		-0.148306		0.000000		0.198049		2.079137		54.465719		19.060237		11.144426		-1.794634		-5.686377		0.380978		1.275700		1.885434		-0.004676		0.000753		0.002386		-5.785902		-0.539480		-0.699569		-0.351739		1.268378		1.873116		0.012650		0.001179		0.001529		
1.249576		-49.058660		2404.903504		163.387854		0.095291		0.000000		0.270615		-1.405424		68.905182		4.681063		35.584238		970.204682		301.054725		-0.138993		0.000000		0.195359		1.963328		53.530826		16.611129		10.966129		-1.768738		-5.780039		0.380966		1.275694		1.885430		-0.000896		0.000144		0.000472		-5.748258		-0.529050		-0.666827		-0.351760		1.268381		1.873131		0.012549		0.001155		0.001456		
1.252227		-28.254363		2500.678289		152.013199		0.095353		0.000000		0.274819		-0.860262		76.165819		4.630126		41.130233		997.359768		263.241315		-0.130734		0.000000		0.197751		2.143503		51.982629		13.721677		10.742970		-1.722252		-5.794186		0.380966		1.275688		1.885417		0.001672		-0.000268		-0.000902		-5.736840		-0.529736		-0.658345		-0.351772		1.268384		1.873146		0.013064		0.001206		0.001499		
1.254879		-13.312741		2496.794707		179.482469		0.094462		0.000000		0.274589		-0.429619		80.597436		5.794318		51.030806		1050.253645		231.808020		-0.125200		0.000000		0.205229		2.457153		50.574385		11.163715		10.519542		-1.663872		-5.725211		0.380979		1.275681		1.885396		0.002393		-0.000379		-0.001303		-5.764776		-0.543537		-0.679197		-0.351772		1.268385		1.873160		0.013950		0.001315		0.001644		
1.257530		-9.702021		2394.741754		239.172741		0.092627		0.000000		0.269985		-0.329391		81.299947		8.120010		60.826509		1130.051368		211.878295		-0.122600		0.000000		0.215928		2.666278		49.535255		9.287854		10.335368		-1.599534		-5.589393		0.381004		1.275676		1.885369		0.001163		-0.000180		-0.000629		-5.836876		-0.565749		-0.726335		-0.351760		1.268381		1.873168		0.015038		0.001458		0.001871		
1.260182		-19.249643		2216.043193		318.499589		0.089906		0.000000		0.261140		-0.672597		77.423888		11.128062		65.205978		1227.703905		202.445169		-0.121821		0.000000		0.227252		2.569165		48.368667		7.976701		10.213886		-1.532379		-5.418729		0.381037		1.275672		1.885338		-0.001514		0.000227		0.000803		-5.944746		-0.586248		-0.789921		-0.351736		1.268372		1.873168		0.016227		0.001600		0.002156		
1.262833		-38.813720		1995.767595		400.674587		0.086613		0.000000		0.248515		-1.341020		68.967202		13.844826		60.333228		1327.036838		197.881990		-0.121523		0.000000		0.237285		2.098624		46.147869		6.882063		10.156898		-1.464044		-5.252189		0.381071		1.275671		1.885307		-0.004689		0.000676		0.002424		-6.067324		-0.593733		-0.855537		-0.351704		1.268355		1.873160		0.017413		0.001704		0.002456		
1.265485		-62.062119		1769.848647		468.915606		0.083378		0.000000		0.233184		-2.011088		57.353553		15.195288		45.465693		1410.538848		191.791820		-0.121018		0.000000		0.245186		1.357383		42.108375		5.725595		10.150908		-1.397215		-5.123934		0.381101		1.275675		1.885278		-0.007390		0.001017		0.003730		-6.178674		-0.579626		-0.908392		-0.351668		1.268335		1.873144		0.018467		0.001732		0.002715		
1.268136		-82.159697		1567.575182		510.099030		0.080939		0.000000		0.217242		-2.377335		45.371543		14.762024		23.588990		1463.845162		180.391860		-0.120366		0.000000		0.250798		0.584081		36.192304		4.460695		10.174901		-1.338656		-5.054748		0.381122		1.275684		1.885253		-0.008978		0.001181		0.004460		-6.254635		-0.540493		-0.936531		-0.351635		1.268314		1.873123		0.019263		0.001665		0.002884		
